<svg width="38" height="38" viewBox="0 0 38 38" fill="none" xmlns="http://www.w3.org/2000/svg">
<g id="clock">
<path id="Vector (Stroke)" fill-rule="evenodd" clip-rule="evenodd" d="M19 4.75004C11.13 4.75004 4.75001 11.13 4.75001 19C4.75001 26.8701 11.13 33.25 19 33.25C26.8701 33.25 33.25 26.8701 33.25 19C33.25 11.13 26.8701 4.75004 19 4.75004ZM1.58334 19C1.58334 9.38108 9.38105 1.58337 19 1.58337C28.619 1.58337 36.4167 9.38108 36.4167 19C36.4167 28.619 28.619 36.4167 19 36.4167C9.38105 36.4167 1.58334 28.619 1.58334 19Z" fill="white"/>
<path id="Vector (Stroke)_2" fill-rule="evenodd" clip-rule="evenodd" d="M19 7.91663C19.8744 7.91663 20.5833 8.62551 20.5833 9.49996V18.0214L26.0414 20.7504C26.8235 21.1415 27.1406 22.0926 26.7495 22.8747C26.3584 23.6568 25.4074 23.9739 24.6252 23.5828L18.2919 20.4161C17.7555 20.1479 17.4167 19.5997 17.4167 19V9.49996C17.4167 8.62551 18.1255 7.91663 19 7.91663Z" fill="white"/>
</g>
</svg>
